<?xml version="1.0" encoding="UTF-8" standalone="no"?>
<!DOCTYPE svg PUBLIC "-//W3C//DTD SVG 1.1//EN"
 "http://www.w3.org/Graphics/SVG/1.1/DTD/svg11.dtd">
<!-- Generated by graphviz version 2.30.1 (20130711.0846)
 -->
<!-- Title: models_diagram Pages: 1 -->
<svg width="590pt" height="826pt"
 viewBox="0.00 0.00 590.00 826.00" xmlns="http://www.w3.org/2000/svg" xmlns:xlink="http://www.w3.org/1999/xlink">
<g id="graph0" class="graph" transform="scale(1 1) rotate(0) translate(4 822)">
<title>models_diagram</title>
<polygon fill="white" stroke="white" points="-4,5 -4,-822 587,-822 587,5 -4,5"/>
<!-- _diagram_info -->
<g id="node1" class="node"><title>_diagram_info</title>
<text text-anchor="start" x="7.31226" y="-751" font-family="Times,serif" font-size="13.00">Models diagram</text>
<text text-anchor="start" x="7.31226" y="-735.4" font-family="Times,serif" font-size="13.00">Date: Jul 17 2013 &#45; 15:59</text>
<text text-anchor="start" x="7.31226" y="-719.8" font-family="Times,serif" font-size="13.00">Migration version: 20130716084552</text>
<text text-anchor="start" x="7.31226" y="-704.2" font-family="Times,serif" font-size="13.00">Generated by RailRoady 1.1.0</text>
<text text-anchor="start" x="7.31226" y="-688.6" font-family="Times,serif" font-size="13.00">http://railroady.prestonlee.com</text>
</g>
<!-- Ability -->
<g id="node2" class="node"><title>Ability</title>
<polygon fill="none" stroke="black" points="225.166,-700.2 225.166,-749.8 280.834,-749.8 280.834,-700.2 225.166,-700.2"/>
<text text-anchor="middle" x="253" y="-731.8" font-family="Times,serif" font-size="14.00">Ability</text>
<polyline fill="none" stroke="black" points="225.166,-725 280.834,-725 "/>
<text text-anchor="middle" x="253" y="-707" font-family="Times,serif" font-size="14.00"> </text>
</g>
<!-- Classroom -->
<g id="node3" class="node"><title>Classroom</title>
<path fill="none" stroke="black" d="M310.495,-675C310.495,-675 419.505,-675 419.505,-675 425.505,-675 431.505,-681 431.505,-687 431.505,-687 431.505,-763 431.505,-763 431.505,-769 425.505,-775 419.505,-775 419.505,-775 310.495,-775 310.495,-775 304.495,-775 298.495,-769 298.495,-763 298.495,-763 298.495,-687 298.495,-687 298.495,-681 304.495,-675 310.495,-675"/>
<text text-anchor="middle" x="365" y="-757" font-family="Times,serif" font-size="14.00">Classroom</text>
<polyline fill="none" stroke="black" points="298.495,-750.2 431.505,-750.2 "/>
<text text-anchor="start" x="306.495" y="-732.2" font-family="Times,serif" font-size="14.00">id :integer</text>
<text text-anchor="start" x="306.495" y="-715.4" font-family="Times,serif" font-size="14.00">name :string</text>
<text text-anchor="start" x="306.495" y="-698.6" font-family="Times,serif" font-size="14.00">created_at :datetime</text>
<text text-anchor="start" x="306.495" y="-681.8" font-family="Times,serif" font-size="14.00">updated_at :datetime</text>
</g>
<!-- Lesson -->
<g id="node6" class="node"><title>Lesson</title>
<path fill="none" stroke="black" d="M347.495,-394.6C347.495,-394.6 456.505,-394.6 456.505,-394.6 462.505,-394.6 468.505,-400.6 468.505,-406.6 468.505,-406.6 468.505,-583.4 468.505,-583.4 468.505,-589.4 462.505,-595.4 456.505,-595.4 456.505,-595.4 347.495,-595.4 347.495,-595.4 341.495,-595.4 335.495,-589.4 335.495,-583.4 335.495,-583.4 335.495,-406.6 335.495,-406.6 335.495,-400.6 341.495,-394.6 347.495,-394.6"/>
<text text-anchor="middle" x="402" y="-577.4" font-family="Times,serif" font-size="14.00">Lesson</text>
<polyline fill="none" stroke="black" points="335.495,-570.6 468.505,-570.6 "/>
<text text-anchor="start" x="343.495" y="-552.6" font-family="Times,serif" font-size="14.00">id :integer</text>
<text text-anchor="start" x="343.495" y="-535.8" font-family="Times,serif" font-size="14.00">name :string</text>
<text text-anchor="start" x="343.495" y="-519" font-family="Times,serif" font-size="14.00">date :string</text>
<text text-anchor="start" x="343.495" y="-502.2" font-family="Times,serif" font-size="14.00">start_time :string</text>
<text text-anchor="start" x="343.495" y="-485.4" font-family="Times,serif" font-size="14.00">end_time :string</text>
<text text-anchor="start" x="343.495" y="-468.6" font-family="Times,serif" font-size="14.00">classroom :string</text>
<text text-anchor="start" x="343.495" y="-451.8" font-family="Times,serif" font-size="14.00">description :string</text>
<text text-anchor="start" x="343.495" y="-435" font-family="Times,serif" font-size="14.00">created_at :datetime</text>
<text text-anchor="start" x="343.495" y="-418.2" font-family="Times,serif" font-size="14.00">updated_at :datetime</text>
<text text-anchor="start" x="343.495" y="-401.4" font-family="Times,serif" font-size="14.00">course_id :integer</text>
</g>
<!-- Classroom&#45;&gt;Lesson -->
<g id="edge1" class="edge"><title>Classroom&#45;&gt;Lesson</title>
<path fill="none" stroke="#4c6929" d="M374.293,-666.737C377.311,-648.136 380.769,-626.83 384.195,-605.719"/>
<ellipse fill="none" stroke="#4c6929" cx="373.624" cy="-670.86" rx="4.00001" ry="4.00001"/>
<polygon fill="#4c6929" stroke="#4c6929" points="384.216,-605.587 390.26,-596.437 385.017,-600.651 385.818,-595.716 385.818,-595.716 385.818,-595.716 385.017,-600.651 381.376,-594.995 384.216,-605.587 384.216,-605.587"/>
</g>
<!-- Course -->
<g id="node4" class="node"><title>Course</title>
<path fill="none" stroke="black" d="M461.495,-633C461.495,-633 570.505,-633 570.505,-633 576.505,-633 582.505,-639 582.505,-645 582.505,-645 582.505,-805 582.505,-805 582.505,-811 576.505,-817 570.505,-817 570.505,-817 461.495,-817 461.495,-817 455.495,-817 449.495,-811 449.495,-805 449.495,-805 449.495,-645 449.495,-645 449.495,-639 455.495,-633 461.495,-633"/>
<text text-anchor="middle" x="516" y="-799" font-family="Times,serif" font-size="14.00">Course</text>
<polyline fill="none" stroke="black" points="449.495,-792.2 582.505,-792.2 "/>
<text text-anchor="start" x="457.495" y="-774.2" font-family="Times,serif" font-size="14.00">id :integer</text>
<text text-anchor="start" x="457.495" y="-757.4" font-family="Times,serif" font-size="14.00">name :string</text>
<text text-anchor="start" x="457.495" y="-740.6" font-family="Times,serif" font-size="14.00">date_start :string</text>
<text text-anchor="start" x="457.495" y="-723.8" font-family="Times,serif" font-size="14.00">date_end :string</text>
<text text-anchor="start" x="457.495" y="-707" font-family="Times,serif" font-size="14.00">language :string</text>
<text text-anchor="start" x="457.495" y="-690.2" font-family="Times,serif" font-size="14.00">cost :float</text>
<text text-anchor="start" x="457.495" y="-673.4" font-family="Times,serif" font-size="14.00">availability :boolean</text>
<text text-anchor="start" x="457.495" y="-656.6" font-family="Times,serif" font-size="14.00">created_at :datetime</text>
<text text-anchor="start" x="457.495" y="-639.8" font-family="Times,serif" font-size="14.00">updated_at :datetime</text>
</g>
<!-- Enrolment -->
<g id="node5" class="node"><title>Enrolment</title>
<path fill="none" stroke="black" d="M429.495,-1.2C429.495,-1.2 538.505,-1.2 538.505,-1.2 544.505,-1.2 550.505,-7.2 550.505,-13.2 550.505,-13.2 550.505,-122.8 550.505,-122.8 550.505,-128.8 544.505,-134.8 538.505,-134.8 538.505,-134.8 429.495,-134.8 429.495,-134.8 423.495,-134.8 417.495,-128.8 417.495,-122.8 417.495,-122.8 417.495,-13.2 417.495,-13.2 417.495,-7.2 423.495,-1.2 429.495,-1.2"/>
<text text-anchor="middle" x="484" y="-116.8" font-family="Times,serif" font-size="14.00">Enrolment</text>
<polyline fill="none" stroke="black" points="417.495,-110 550.505,-110 "/>
<text text-anchor="start" x="425.495" y="-92" font-family="Times,serif" font-size="14.00">id :integer</text>
<text text-anchor="start" x="425.495" y="-75.2" font-family="Times,serif" font-size="14.00">user_id :integer</text>
<text text-anchor="start" x="425.495" y="-58.4" font-family="Times,serif" font-size="14.00">course_id :integer</text>
<text text-anchor="start" x="425.495" y="-41.6" font-family="Times,serif" font-size="14.00">created_at :datetime</text>
<text text-anchor="start" x="425.495" y="-24.8" font-family="Times,serif" font-size="14.00">updated_at :datetime</text>
<text text-anchor="start" x="425.495" y="-8" font-family="Times,serif" font-size="14.00">involvement :string</text>
</g>
<!-- Course&#45;&gt;Enrolment -->
<g id="edge2" class="edge"><title>Course&#45;&gt;Enrolment</title>
<path fill="none" stroke="#8cc612" d="M524.942,-624.331C532.837,-513.264 539.778,-328.678 516,-172 514.638,-163.027 512.645,-153.759 510.308,-144.631"/>
<ellipse fill="none" stroke="#8cc612" cx="524.637" cy="-628.54" rx="4" ry="4"/>
<polygon fill="#8cc612" stroke="#8cc612" points="510.261,-144.454 511.996,-133.626 508.956,-139.627 507.652,-134.8 507.652,-134.8 507.652,-134.8 508.956,-139.627 503.307,-135.974 510.261,-144.454 510.261,-144.454"/>
</g>
<!-- User -->
<g id="node7" class="node"><title>User</title>
<path fill="none" stroke="black" d="M370.698,-173C370.698,-173 495.302,-173 495.302,-173 501.302,-173 507.302,-179 507.302,-185 507.302,-185 507.302,-345 507.302,-345 507.302,-351 501.302,-357 495.302,-357 495.302,-357 370.698,-357 370.698,-357 364.698,-357 358.698,-351 358.698,-345 358.698,-345 358.698,-185 358.698,-185 358.698,-179 364.698,-173 370.698,-173"/>
<text text-anchor="middle" x="433" y="-339" font-family="Times,serif" font-size="14.00">User</text>
<polyline fill="none" stroke="black" points="358.698,-332.2 507.302,-332.2 "/>
<text text-anchor="start" x="366.698" y="-314.2" font-family="Times,serif" font-size="14.00">id :integer</text>
<text text-anchor="start" x="366.698" y="-297.4" font-family="Times,serif" font-size="14.00">first_name :string</text>
<text text-anchor="start" x="366.698" y="-280.6" font-family="Times,serif" font-size="14.00">second_name :string</text>
<text text-anchor="start" x="366.698" y="-263.8" font-family="Times,serif" font-size="14.00">username :string</text>
<text text-anchor="start" x="366.698" y="-247" font-family="Times,serif" font-size="14.00">email :string</text>
<text text-anchor="start" x="366.698" y="-230.2" font-family="Times,serif" font-size="14.00">password_digest :string</text>
<text text-anchor="start" x="366.698" y="-213.4" font-family="Times,serif" font-size="14.00">created_at :datetime</text>
<text text-anchor="start" x="366.698" y="-196.6" font-family="Times,serif" font-size="14.00">updated_at :datetime</text>
<text text-anchor="start" x="366.698" y="-179.8" font-family="Times,serif" font-size="14.00">role :string</text>
</g>
<!-- Course&#45;&gt;User -->
<g id="edge3" class="edge"><title>Course&#45;&gt;User</title>
<path fill="none" stroke="#1dc7c5" d="M509.627,-622.406C504.125,-556.658 494.24,-469.544 477,-394 474.984,-385.167 472.578,-376.092 469.944,-367.047"/>
<polygon fill="#1dc7c5" stroke="#1dc7c5" points="509.66,-622.802 505.988,-633.135 510.067,-627.786 510.473,-632.769 510.473,-632.769 510.473,-632.769 510.067,-627.786 514.958,-632.403 509.66,-622.802 509.66,-622.802"/>
<polygon fill="#1dc7c5" stroke="#1dc7c5" points="469.88,-366.835 471.314,-355.963 468.442,-362.046 467.004,-357.258 467.004,-357.258 467.004,-357.258 468.442,-362.046 462.694,-358.552 469.88,-366.835 469.88,-366.835"/>
</g>
<!-- Course&#45;&gt;Lesson -->
<g id="edge4" class="edge"><title>Course&#45;&gt;Lesson</title>
<path fill="none" stroke="#e59760" d="M466.836,-625.672C463.406,-618.812 459.937,-611.874 456.481,-604.961"/>
<ellipse fill="none" stroke="#e59760" cx="468.664" cy="-629.328" rx="4.00002" ry="4.00002"/>
<polygon fill="#e59760" stroke="#e59760" points="456.252,-604.503 455.804,-593.547 454.016,-600.031 451.78,-595.559 451.78,-595.559 451.78,-595.559 454.016,-600.031 447.755,-597.572 456.252,-604.503 456.252,-604.503"/>
</g>
<!-- Lesson&#45;&gt;User -->
<g id="edge5" class="edge"><title>Lesson&#45;&gt;User</title>
<path fill="none" stroke="#f18991" d="M416.934,-384.164C417.701,-378.523 418.47,-372.868 419.233,-367.255"/>
<polygon fill="#f18991" stroke="#f18991" points="416.899,-384.419 411.093,-393.721 416.226,-389.373 415.552,-394.328 415.552,-394.328 415.552,-394.328 416.226,-389.373 420.011,-394.934 416.899,-384.419 416.899,-384.419"/>
<polygon fill="#f18991" stroke="#f18991" points="419.251,-367.118 425.058,-357.816 419.925,-362.164 420.599,-357.209 420.599,-357.209 420.599,-357.209 419.925,-362.164 416.14,-356.603 419.251,-367.118 419.251,-367.118"/>
</g>
<!-- User&#45;&gt;Enrolment -->
<g id="edge6" class="edge"><title>User&#45;&gt;Enrolment</title>
<path fill="none" stroke="#c8b663" d="M458.898,-164.978C460.692,-158.12 462.483,-151.272 464.236,-144.57"/>
<ellipse fill="none" stroke="#c8b663" cx="457.87" cy="-168.91" rx="4.00001" ry="4.00001"/>
<polygon fill="#c8b663" stroke="#c8b663" points="464.242,-144.545 471.126,-136.009 465.507,-139.708 466.772,-134.87 466.772,-134.87 466.772,-134.87 465.507,-139.708 462.419,-133.732 464.242,-144.545 464.242,-144.545"/>
</g>
</g>
</svg>
